<svg xmlns="http://www.w3.org/2000/svg" viewBox="0 0 641.36 741.25"><defs><style>.cls-1,.cls-2,.cls-3{fill:white}</style></defs><title>Asset 1</title><g id="Layer_2" data-name="Layer 2"><g id="Layer_1-2" data-name="Layer 1"><path class="cls-1" d="M324,224.78C334.09,260,344,294,353.64,328.15c1.23,4.35,2.55,6,7.67,4.94,45.14-9.24,90.36-18.15,135.57-27,3.79-.74,4.5-1.91,3.28-5.67Q452.25,152.53,404.67,4.57c-1.13-3.51-2.54-4.52-6.12-4.51q-74,.18-148-.06c-4.71,0-6.51,1.46-7.92,5.73q-53.3,161.54-106.85,323-8.57,25.88-17.07,51.8c.65.17,1,.38,1.26.32q81.25-16.14,162.53-32.21c3.6-.7,4.93-2.36,5.86-5.51,4.65-15.91,9.42-31.78,14.2-47.65C309.54,272.3,316.57,249.16,324,224.78ZM20.89,593.16c37.65-7.51,74.81-14.88,112-22.34Q258.13,545.64,383.4,520.4q101.07-20.28,202.18-40.3c2.78-.55,3.87-1.34,2.83-4.42q-22.74-67.62-45.27-135.32c-.87-2.64-2-3.55-4.92-2.95q-109.5,22.08-219,44Q199.89,405.3,80.57,429.13c-3.24.65-5,1.87-6.11,5.18Q59.93,478.2,45.05,522C37.07,545.58,29,569.16,20.89,593.16Zm533.71,148c27.5,0,55-.06,82.49.07,3.95,0,5.13-.39,3.67-4.84-10.27-31.16-20.2-62.43-30.26-93.66-12.34-38.33-24.75-76.64-37-115-1.13-3.53-2.73-4.32-6.07-3.51-4.68,1.14-9.44,2-14.17,2.92q-66.57,13.21-133.14,26.36c-3.87.76-5.16,1.71-3.95,6.07,4.42,16,7.95,32.33,12.51,48.34,12.23,43,24.88,85.93,37.16,128.94,1.07,3.74,2.82,4.4,6.25,4.39C499.61,741.1,527.11,741.15,554.6,741.15Zm-467.12,0c27.65,0,55.31-.07,83,.1,3.62,0,5.15-1,6.1-4.5,3-10.85,6.31-21.62,9.53-32.41q15.75-52.85,31.59-105.66c1.34-4.45.38-5-3.94-4.15Q127.15,611.92,40.5,629c-3.2.62-4.87,1.85-5.88,4.92q-16.9,51.45-34,102.83C-.72,740.58.1,741.26,4,741.24,31.83,741.08,59.65,741.15,87.48,741.15Z"/><path class="cls-2" d="M324,224.78c-7.38,24.38-14.41,47.52-21.39,70.68-4.78,15.87-9.55,31.74-14.2,47.65-.93,3.15-2.26,4.81-5.86,5.51Q201.2,364.55,120,380.83c-.28.06-.61-.15-1.26-.32q8.55-25.93,17.07-51.8,53.46-161.47,106.85-323C244,1.46,245.84,0,250.55,0q74,.33,148,.06c3.58,0,5,1,6.12,4.51q47.57,148,95.49,295.81c1.22,3.76.51,4.93-3.28,5.67-45.21,8.89-90.43,17.8-135.57,27-5.12,1-6.44-.59-7.67-4.94C344,294,334.09,260,324,224.78Z"/><path class="cls-3" d="M20.89,593.16c8.14-24,16.18-47.58,24.16-71.19q14.79-43.8,29.41-87.66c1.09-3.31,2.87-4.53,6.11-5.18q119.33-23.79,238.61-47.74,109.53-22,219-44c2.95-.6,4,.31,4.92,2.95q22.54,67.69,45.27,135.32c1,3.08,0,3.87-2.83,4.42q-101.1,20.08-202.18,40.3-125.29,25.13-250.55,50.42C95.7,578.28,58.54,585.65,20.89,593.16Z"/><path class="cls-2" d="M554.6,741.15c-27.49,0-55,0-82.48.07-3.43,0-5.18-.65-6.25-4.39-12.28-43-24.93-85.92-37.16-128.94-4.56-16-8.09-32.3-12.51-48.34-1.21-4.36.08-5.31,3.95-6.07q66.59-13.05,133.14-26.36c4.73-.94,9.49-1.78,14.17-2.92,3.34-.81,4.94,0,6.07,3.51,12.22,38.37,24.63,76.68,37,115,10.06,31.23,20,62.5,30.26,93.66,1.46,4.45.28,4.86-3.67,4.84C609.59,741.09,582.1,741.15,554.6,741.15Z"/><path class="cls-2" d="M87.48,741.15c-27.83,0-55.65-.07-83.48.09-3.9,0-4.72-.66-3.43-4.52q17.19-51.36,34.05-102.83c1-3.07,2.68-4.3,5.88-4.92q86.64-17.06,173.23-34.44c4.32-.87,5.28-.3,3.94,4.15q-15.93,52.79-31.59,105.66c-3.22,10.79-6.53,21.56-9.53,32.41-1,3.45-2.48,4.52-6.1,4.5C142.79,741.08,115.13,741.15,87.48,741.15Z"/></g></g></svg>